<svg width="73" height="73" viewBox="0 0 73 73" fill="none" xmlns="http://www.w3.org/2000/svg">
<path d="M21.8992 58.4C17.8844 58.4 14.636 61.685 14.636 65.7C14.636 69.715 17.8844 73 21.8992 73C25.9141 73 29.199 69.715 29.199 65.7C29.199 61.685 25.9141 58.4 21.8992 58.4ZM0 0V7.3H7.29975L20.4393 35.0035L15.512 43.946C14.928 44.968 14.5995 46.1725 14.5995 47.45C14.5995 51.465 17.8844 54.75 21.8992 54.75H65.6977V47.45H23.4322C22.9212 47.45 22.5197 47.0485 22.5197 46.5375L22.6292 46.0995L25.9141 40.15H53.1057C55.8431 40.15 58.252 38.6535 59.493 36.3905L72.5595 12.702C72.8606 12.145 73.0122 11.5193 72.9992 10.8862C72.9863 10.2531 72.8094 9.63421 72.4858 9.08992C72.1622 8.54563 71.7029 8.0946 71.1529 7.78087C70.6028 7.46715 69.9808 7.30146 69.3476 7.3H15.366L11.9351 0H0ZM58.398 58.4C54.3831 58.4 51.1347 61.685 51.1347 65.7C51.1347 69.715 54.3831 73 58.398 73C62.4129 73 65.6977 69.715 65.6977 65.7C65.6977 61.685 62.4129 58.4 58.398 58.4Z" fill="#4B4B4B"/>
</svg>
